<mxfile host="app.diagrams.net" agent="Mozilla/5.0 (Windows NT 10.0; Win64; x64) AppleWebKit/537.36 (KHTML, like Gecko) Chrome/134.0.0.0 Safari/537.36" version="26.1.1">
  <diagram name="第 1 页" id="F_KBQMhPhrDOUeG0Ro17">
    <mxGraphModel dx="1434" dy="746" grid="1" gridSize="10" guides="1" tooltips="1" connect="1" arrows="1" fold="1" page="1" pageScale="1" pageWidth="827" pageHeight="1169" math="0" shadow="0">
      <root>
        <mxCell id="0" />
        <mxCell id="1" parent="0" />
        <mxCell id="4fqrKCkIJPKxaF0g75G1-3" style="edgeStyle=orthogonalEdgeStyle;rounded=0;orthogonalLoop=1;jettySize=auto;html=1;" edge="1" parent="1" source="4fqrKCkIJPKxaF0g75G1-1" target="4fqrKCkIJPKxaF0g75G1-2">
          <mxGeometry relative="1" as="geometry" />
        </mxCell>
        <mxCell id="4fqrKCkIJPKxaF0g75G1-4" value="登陆" style="edgeLabel;html=1;align=center;verticalAlign=middle;resizable=0;points=[];" vertex="1" connectable="0" parent="4fqrKCkIJPKxaF0g75G1-3">
          <mxGeometry x="-0.1625" y="-5" relative="1" as="geometry">
            <mxPoint x="7" y="-5" as="offset" />
          </mxGeometry>
        </mxCell>
        <mxCell id="4fqrKCkIJPKxaF0g75G1-1" value="客户端" style="rounded=1;whiteSpace=wrap;html=1;" vertex="1" parent="1">
          <mxGeometry x="20" y="360" width="120" height="60" as="geometry" />
        </mxCell>
        <mxCell id="4fqrKCkIJPKxaF0g75G1-8" style="edgeStyle=orthogonalEdgeStyle;rounded=0;orthogonalLoop=1;jettySize=auto;html=1;" edge="1" parent="1" source="4fqrKCkIJPKxaF0g75G1-2" target="4fqrKCkIJPKxaF0g75G1-5">
          <mxGeometry relative="1" as="geometry" />
        </mxCell>
        <mxCell id="4fqrKCkIJPKxaF0g75G1-18" style="edgeStyle=orthogonalEdgeStyle;rounded=0;orthogonalLoop=1;jettySize=auto;html=1;entryX=0;entryY=0.5;entryDx=0;entryDy=0;" edge="1" parent="1" source="4fqrKCkIJPKxaF0g75G1-2" target="4fqrKCkIJPKxaF0g75G1-10">
          <mxGeometry relative="1" as="geometry">
            <Array as="points">
              <mxPoint x="490" y="390" />
              <mxPoint x="490" y="220" />
            </Array>
          </mxGeometry>
        </mxCell>
        <mxCell id="4fqrKCkIJPKxaF0g75G1-19" style="edgeStyle=orthogonalEdgeStyle;rounded=0;orthogonalLoop=1;jettySize=auto;html=1;" edge="1" parent="1" source="4fqrKCkIJPKxaF0g75G1-2" target="4fqrKCkIJPKxaF0g75G1-15">
          <mxGeometry relative="1" as="geometry" />
        </mxCell>
        <mxCell id="4fqrKCkIJPKxaF0g75G1-20" style="edgeStyle=orthogonalEdgeStyle;rounded=0;orthogonalLoop=1;jettySize=auto;html=1;entryX=0;entryY=0.5;entryDx=0;entryDy=0;" edge="1" parent="1" source="4fqrKCkIJPKxaF0g75G1-2" target="4fqrKCkIJPKxaF0g75G1-16">
          <mxGeometry relative="1" as="geometry" />
        </mxCell>
        <mxCell id="4fqrKCkIJPKxaF0g75G1-2" value="小程序" style="rounded=1;whiteSpace=wrap;html=1;" vertex="1" parent="1">
          <mxGeometry x="290" y="360" width="120" height="60" as="geometry" />
        </mxCell>
        <mxCell id="4fqrKCkIJPKxaF0g75G1-13" value="" style="edgeStyle=orthogonalEdgeStyle;rounded=0;orthogonalLoop=1;jettySize=auto;html=1;" edge="1" parent="1" source="4fqrKCkIJPKxaF0g75G1-5" target="4fqrKCkIJPKxaF0g75G1-12">
          <mxGeometry relative="1" as="geometry" />
        </mxCell>
        <mxCell id="4fqrKCkIJPKxaF0g75G1-14" value="存储" style="edgeLabel;html=1;align=center;verticalAlign=middle;resizable=0;points=[];" vertex="1" connectable="0" parent="4fqrKCkIJPKxaF0g75G1-13">
          <mxGeometry x="-0.3692" y="-1" relative="1" as="geometry">
            <mxPoint x="9" y="-1" as="offset" />
          </mxGeometry>
        </mxCell>
        <mxCell id="4fqrKCkIJPKxaF0g75G1-5" value="查询微信用户信息" style="rounded=1;whiteSpace=wrap;html=1;fillColor=#ffe6cc;strokeColor=#d79b00;" vertex="1" parent="1">
          <mxGeometry x="290" y="200" width="120" height="60" as="geometry" />
        </mxCell>
        <mxCell id="4fqrKCkIJPKxaF0g75G1-10" value="填写表达" style="rounded=1;whiteSpace=wrap;html=1;" vertex="1" parent="1">
          <mxGeometry x="560" y="190" width="120" height="60" as="geometry" />
        </mxCell>
        <mxCell id="4fqrKCkIJPKxaF0g75G1-12" value="DB" style="whiteSpace=wrap;html=1;rounded=1;" vertex="1" parent="1">
          <mxGeometry x="290" y="40" width="120" height="60" as="geometry" />
        </mxCell>
        <mxCell id="4fqrKCkIJPKxaF0g75G1-16" value="填写表达" style="rounded=1;whiteSpace=wrap;html=1;" vertex="1" parent="1">
          <mxGeometry x="570" y="520" width="120" height="60" as="geometry" />
        </mxCell>
        <mxCell id="4fqrKCkIJPKxaF0g75G1-15" value="填写表达" style="rounded=1;whiteSpace=wrap;html=1;" vertex="1" parent="1">
          <mxGeometry x="560" y="360" width="120" height="60" as="geometry" />
        </mxCell>
      </root>
    </mxGraphModel>
  </diagram>
</mxfile>
